<svg width="263" height="60" viewBox="0 0 263 60" fill="none" xmlns="http://www.w3.org/2000/svg">
<path d="M17.9598 0.277527L34.5214 16.8812V28.8642L29.8752 33.5221L35.7711 39.4268V41.9759L18.0711 59.7271L0.266014 41.8767V39.3772L5.62983 33.9997L0.903236 29.2611V17.0859L17.9598 0.277527Z" fill="#00B085"></path>
<path d="M35.9381 39.2531L30.333 33.6338L34.8678 29.0751C34.9173 29.0255 34.9483 28.951 34.9483 28.8766V16.7386C34.9483 16.658 34.9173 16.5897 34.8678 16.5339L18.2196 0.07908C18.1144 -0.02636 17.935 -0.02636 17.8237 0.07908L0.791888 16.9433C0.742395 16.9929 0.723838 17.0549 0.717651 17.1169C0.717651 17.1231 0.705275 17.1293 0.705275 17.1417V29.2984C0.705275 29.3728 0.736207 29.441 0.7857 29.4906L5.30813 34.0184L0.0804245 39.2531C0.0309315 39.3027 0 39.3772 0 39.4516V41.9326C0 42.007 0.0309315 42.0814 0.0804245 42.131L17.7927 59.9132C17.8422 59.969 17.9103 60 17.9907 60C18.0711 60 18.1454 59.9628 18.1949 59.9008L35.9196 42.1372C35.9691 42.0814 36 42.0132 36 41.945V39.4578C36 39.3834 35.9753 39.309 35.9196 39.2593L35.9381 39.2531ZM15.6646 22.0044L17.7432 19.939V21.5516L16.4688 22.8045L15.6646 22.0044ZM29.6649 28.1261L18.2939 16.9805V15.3431L29.6649 26.4949V28.1261ZM18.3001 19.9452L29.6711 31.3451V32.9515L18.3001 21.5578V19.9452ZM18.3001 19.1513V17.762L29.6711 28.9138V30.5512L18.3001 19.1513ZM30.2217 26.4887L34.3915 22.2897V23.9147L30.2217 28.1137V26.4825V26.4887ZM34.3915 21.4958L30.2217 25.6948V24.0512L34.3915 19.8522V21.4958ZM29.6649 25.7072L18.2939 14.5616V12.9117L29.6649 24.0636V25.7134V25.7072ZM30.2217 28.9076L34.3915 24.7086V26.3584L30.2217 30.5574V28.9076ZM34.3915 19.0583L30.2217 23.2573V21.595L34.3915 17.4085V19.0583ZM29.6649 23.2697L18.2939 12.1178V10.468L29.6649 21.6074V23.2697ZM17.7432 12.1178L11.7855 18.1155L10.9875 17.3154L17.7494 10.4804V12.1178H17.7432ZM17.7432 12.9117V14.5554L12.9919 19.3312L12.1753 18.5125L17.7432 12.9117ZM17.7432 15.3431V16.9681L14.1983 20.5282L13.3879 19.7157L17.7432 15.3431ZM17.7432 17.7682V19.1575L15.2686 21.6136L14.5881 20.9314L17.7371 17.7682H17.7432ZM30.2217 32.9577V31.3451L34.3915 27.1461V28.765L30.2217 32.9577ZM18.0278 0.674501L34.2739 16.7386L29.9433 21.0926L18.2134 9.60589C18.1083 9.50045 17.9227 9.50045 17.8175 9.60589L10.3873 17.1169C10.276 17.2286 10.276 17.4023 10.3873 17.5139L21.9564 29.0999L17.6257 33.4415L1.37962 17.1479L18.0217 0.680709L18.0278 0.674501ZM22.0801 41.1076L17.9165 45.2756V43.7002L22.0801 39.5136V41.1076ZM22.0801 38.7197L17.9165 42.9063V41.2565L22.0801 37.0699V38.7135V38.7197ZM22.0801 36.2822L17.9165 40.4688V38.8314L22.0801 34.6448V36.276V36.2822ZM22.0801 33.8571L17.9165 38.0437V36.4001L22.0801 32.2197V33.8571ZM17.3535 35.6062L1.27444 19.4738V17.8178L17.3535 33.9501V35.6062ZM17.3535 36.3938V38.0437L1.27444 21.9114V20.2677L17.3535 36.3938ZM17.3535 38.8314V40.4688L1.27444 24.3365V22.7053L17.3535 38.8314ZM1.27444 25.1242L17.3535 41.2565V42.9001L1.27444 26.7616V25.1242ZM22.0801 31.4258L17.9165 35.6124V33.9501L22.0801 29.7697V31.4258ZM1.27444 27.5555L17.3535 43.6878V45.2694L1.27444 29.1805V27.5493V27.5555ZM5.71026 34.4153L17.4339 46.1564C17.5453 46.268 17.7185 46.268 17.8299 46.1564L22.5503 41.424C22.6059 41.3681 22.6307 41.2937 22.6307 41.2255V36.4063V29.0999C22.6307 29.0255 22.5998 28.9572 22.5503 28.9014L16.8586 23.2014L18.0155 22.0726L35.3442 39.4578L18.0031 56.8492L0.67434 39.4578L5.70407 34.4215L5.71026 34.4153ZM0.569169 40.1277L17.7309 57.3516V59.0449L0.569169 41.8147V40.1277ZM18.2877 59.0324V57.3516L35.4618 40.1277V41.8209L18.2877 59.0324Z" fill="white"></path>
<path d="M63.0884 17.023H58.5167C58.4189 16.4118 58.2722 15.2628 56.8542 15.2628C56.0474 15.2628 55.2651 15.8251 55.2651 16.6807C55.2651 17.7564 55.7541 17.9765 59.0056 19.4433C62.3794 20.9591 63.2351 22.5237 63.2351 24.6263C63.2351 27.2666 61.7193 30.1759 56.9275 30.1759C51.6957 30.1759 50.4 26.7532 50.4 24.4307V23.8439H54.9962C54.9962 25.9464 56.2919 26.3131 56.8787 26.3131C57.9788 26.3131 58.6389 25.4086 58.6389 24.5774C58.6389 23.3794 57.881 23.086 55.094 21.9126C53.8227 21.3992 50.6689 20.1279 50.6689 16.7296C50.6689 13.3314 53.9694 11.4 57.0009 11.4C58.7856 11.4 60.717 12.0601 61.8904 13.4536C62.9661 14.7738 63.0395 15.9962 63.0884 17.023Z" fill="#00B085"></path>
<path d="M69.084 16.2651V29.8336H65.0257V16.2651H69.084Z" fill="#00B085"></path>
<path d="M84.3671 16.2651L79.4775 29.8336H75.5903L70.7252 16.2651H74.9303L77.5217 24.724H77.5706L80.1621 16.2651H84.3671Z" fill="#00B085"></path>
<path d="M99.513 16.2651V29.8336H95.4547V28.3668H95.4058C94.7213 29.6869 93.0344 30.2981 91.4453 30.2981C87.1425 30.2981 84.6244 26.9243 84.6244 23.0371C84.6244 18.5877 87.827 15.8006 91.4453 15.8006C93.67 15.8006 94.9169 16.8763 95.4058 17.7075H95.4547V16.2651H99.513ZM88.6827 23.086C88.6827 24.3573 89.6117 26.5087 92.0565 26.5087C94.599 26.5087 95.4547 24.3573 95.4547 23.0371C95.4547 21.3992 94.3301 19.59 92.032 19.59C89.7095 19.59 88.6827 21.5458 88.6827 23.086Z" fill="#00B085"></path>
<path d="M116.36 11.7423V29.8336H112.497V28.3668H112.448C112.106 28.9291 111.128 30.2737 108.39 30.2737C104.283 30.2737 101.594 27.0955 101.594 23.0127C101.594 18.4165 104.87 15.8006 108.317 15.8006C110.713 15.8006 111.862 16.9741 112.302 17.4142V11.7423H116.36ZM105.652 22.9883C105.652 25.0908 107.143 26.4843 109.05 26.4843C111.593 26.4843 112.522 24.4062 112.522 22.9883C112.522 21.3503 111.348 19.59 109.099 19.59C106.752 19.59 105.652 21.4236 105.652 22.9883Z" fill="#00B085"></path>
<path d="M118.42 23.0371C118.42 19.7123 120.791 15.8251 125.729 15.8251C130.668 15.8251 133.039 19.7123 133.039 23.0371C133.039 26.362 130.668 30.2492 125.729 30.2492C120.791 30.2492 118.42 26.362 118.42 23.0371ZM122.478 23.0371C122.478 25.0174 123.969 26.4598 125.729 26.4598C127.49 26.4598 128.981 25.0174 128.981 23.0371C128.981 21.0569 127.49 19.6145 125.729 19.6145C123.969 19.6145 122.478 21.0569 122.478 23.0371Z" fill="#00B085"></path>
<path d="M135.093 29.8336V16.2651H138.883V17.7075H138.932C139.347 17.0475 140.203 15.8006 142.623 15.8006C143.919 15.8006 145.361 16.3385 146.095 16.9741C146.828 17.6098 147.659 18.6855 147.659 21.3503V29.8336H143.601V22.426C143.601 21.4725 143.601 19.6145 141.474 19.6145C139.152 19.6145 139.152 21.6192 139.152 22.4504V29.8336H135.093Z" fill="#00B085"></path>
<path d="M156.089 29.8336V11.7423H160.71V25.7753H166.064V29.8336H156.089Z" fill="#00B085"></path>
<path d="M166.829 23.0371C166.829 19.7123 169.201 15.8251 174.139 15.8251C179.077 15.8251 181.449 19.7123 181.449 23.0371C181.449 26.362 179.077 30.2492 174.139 30.2492C169.201 30.2492 166.829 26.362 166.829 23.0371ZM170.887 23.0371C170.887 25.0174 172.379 26.4598 174.139 26.4598C175.899 26.4598 177.391 25.0174 177.391 23.0371C177.391 21.0569 175.899 19.6145 174.139 19.6145C172.379 19.6145 170.887 21.0569 170.887 23.0371Z" fill="#00B085"></path>
<path d="M197.56 16.2651V28.1956C197.56 30.2248 197.414 31.5205 196.754 32.6696C195.702 34.3809 193.233 35.8722 189.884 35.8722C185.165 35.8722 183.381 33.0363 183.112 31.1049H187.806C188.392 32.4495 189.908 32.4495 190.177 32.4495C190.69 32.4495 193.478 32.4006 193.478 28.7579V28.3423H193.429C193.013 29.1246 191.84 30.2737 189.713 30.2737C186.021 30.2737 182.867 27.4866 182.867 23.1349C182.867 18.4899 186.192 15.8251 189.713 15.8251C191.228 15.8251 192.72 16.3629 193.453 17.5364H193.502V16.2651H197.56ZM186.926 22.9883C186.926 25.1641 188.49 26.4843 190.177 26.4843C192.133 26.4843 193.502 25.0663 193.502 23.1105C193.502 20.9346 192.011 19.6145 190.202 19.6145C188.466 19.6145 186.926 21.008 186.926 22.9883Z" fill="#00B085"></path>
<path d="M204.507 16.2651V29.8336H200.448V16.2651H204.507ZM204.507 11.7423V14.8227H200.448V11.7423H204.507Z" fill="#00B085"></path>
<path d="M216.954 20.079H212.969C212.944 19.7856 212.895 19.0522 211.697 19.0522C210.842 19.0522 210.548 19.59 210.548 19.9567C210.548 20.6902 211.551 21.1058 212.626 21.4236C214.925 22.0592 217.369 22.7438 217.369 25.6775C217.369 28.5379 214.851 30.2981 211.844 30.2981C209.79 30.2981 206.686 29.3691 206.319 25.7997H210.353C210.524 27.0466 211.722 27.0466 211.893 27.0466C212.578 27.0466 213.311 26.6554 213.311 25.9953C213.311 24.9441 212.309 24.8218 209.717 23.8195C207.957 23.2572 206.49 22.1081 206.49 20.2746C206.49 17.5853 208.935 15.8006 211.746 15.8006C213.531 15.8006 216.611 16.5096 216.954 20.079Z" fill="#00B085"></path>
<path d="M224.02 11.7423V16.2651H225.975V19.3455H224.02V29.8336H219.961V19.3455H217.957V16.2651H219.961V11.7423H224.02Z" fill="#00B085"></path>
<path d="M231.539 16.2651V29.8336H227.481V16.2651H231.539ZM231.539 11.7423V14.8227H227.481V11.7423H231.539Z" fill="#00B085"></path>
<path d="M243.815 24.6751H247.947C247.214 27.7556 244.5 30.2737 240.833 30.2737C236.726 30.2737 233.572 27.0466 233.572 23.0127C233.572 19.0277 236.677 15.8006 240.735 15.8006C244.329 15.8006 247.238 18.172 247.923 21.4969H243.815C243.375 20.5679 242.569 19.59 240.882 19.59C238.95 19.4922 237.655 21.0813 237.655 23.0371C237.655 25.0174 238.95 26.4843 240.882 26.4843C242.569 26.4843 243.375 25.5064 243.815 24.6751Z" fill="#00B085"></path>
<path d="M259.69 20.079H255.705C255.681 19.7856 255.632 19.0522 254.434 19.0522C253.578 19.0522 253.285 19.59 253.285 19.9567C253.285 20.6902 254.287 21.1058 255.363 21.4236C257.661 22.0592 260.106 22.7438 260.106 25.6775C260.106 28.5379 257.588 30.2981 254.581 30.2981C252.527 30.2981 249.422 29.3691 249.056 25.7997H253.09C253.261 27.0466 254.459 27.0466 254.63 27.0466C255.314 27.0466 256.048 26.6554 256.048 25.9953C256.048 24.9441 255.045 24.8218 252.454 23.8195C250.694 23.2572 249.227 22.1081 249.227 20.2746C249.227 17.5853 251.672 15.8006 254.483 15.8006C256.268 15.8006 259.348 16.5096 259.69 20.079Z" fill="#00B085"></path>
<path d="M51 45.24V34.2H53.4797V37.6164C54.361 36.6766 55.5411 36.6766 55.8847 36.6766C57.6175 36.6766 59.9628 37.9148 59.9628 41.0478C59.9628 44.0316 57.8864 45.5235 55.7802 45.5235C54.615 45.5235 53.7187 44.9566 53.405 44.3598H53.3751V45.24H51ZM53.3901 41.0776C53.3901 42.2264 54.1669 43.211 55.4067 43.211C56.6764 43.211 57.4831 42.1816 57.4831 41.0926C57.4831 40.0184 56.6764 38.989 55.4515 38.989C54.137 38.989 53.3901 40.0482 53.3901 41.0776Z" fill="#F58800"></path>
<path d="M65.9503 36.96H68.5794L64.4267 48H61.7976L63.1121 44.8223L60.0349 36.96H62.6789L64.337 41.7639H64.3669L65.9503 36.96Z" fill="#F58800"></path>
<path d="M77.3674 38.0771L78.8449 40.7203L76.4505 45.0312L76.3251 45.2575H73.3794L73.7409 44.6057L77.3674 38.0771ZM86.18 45.2575H83.2333L83.1079 45.0312L80.9032 41.0607L79.8229 39.1159L79.7797 39.0381L78.3022 36.3949L78.3074 36.3866L78.4255 36.1738L79.3866 34.4428L79.4994 34.2H80.0632L80.1728 34.4418L81.135 36.1738L85.8185 44.6057L86.18 45.2575Z" fill="#F58800"></path>
<path d="M98.5393 34.2011V45.299H96.1902V39.3401L94.9445 40.5813L94.4649 41.0586L94.3353 41.1873L93.9053 41.6149L93.5944 41.9241L92.0136 40.3488L90.9291 39.2685L88.58 36.9283V34.2H89.1639L91.3981 36.426L93.5944 38.6147L98.025 34.2H98.5393V34.2011ZM88.58 39.2363L90.9291 41.5723V45.3H88.58V39.2363Z" fill="#F58800"></path>
<path d="M103.888 34.2V45.2398H101.539V34.2H103.888Z" fill="#F58800"></path>
<path d="M115.689 42.9578V45.2979H106.888V34.2H109.238V42.9578H115.689Z" fill="#F58800"></path>
<path d="M129.109 39.6909C129.109 42.718 126.637 45.1817 123.599 45.1817C120.561 45.1817 118.089 42.7191 118.089 39.6909C118.089 36.6626 120.561 34.2 123.599 34.2C126.638 34.2 129.109 36.6626 129.109 39.6909ZM123.599 36.4914C121.829 36.4914 120.389 37.9266 120.389 39.6898C120.389 41.453 121.829 42.8882 123.599 42.8882C125.37 42.8882 126.809 41.453 126.809 39.6898C126.809 37.9266 125.37 36.4914 123.599 36.4914Z" fill="#F58800"></path>
</svg>