<svg width="210" height="37" viewBox="0 0 210 37" fill="none" xmlns="http://www.w3.org/2000/svg">
<path d="M12.6884 5.62298H8.11665C8.01886 5.01179 7.87217 3.86274 6.45421 3.86274C5.64743 3.86274 4.8651 4.42504 4.8651 5.28071C4.8651 6.35641 5.35406 6.57644 8.60561 8.04331C11.9794 9.55907 12.8351 11.1237 12.8351 13.2262C12.8351 15.8666 11.3193 18.7759 6.52755 18.7759C1.29573 18.7759 0 15.3532 0 13.0306V12.4439H4.59618C4.59618 14.5464 5.89191 14.9131 6.47865 14.9131C7.5788 14.9131 8.23889 14.0086 8.23889 13.1773C8.23889 11.9794 7.48101 11.686 4.69397 10.5125C3.42268 9.99913 0.268925 8.72784 0.268925 5.32961C0.268925 1.93137 3.56937 0 6.60089 0C8.38558 0 10.3169 0.660088 11.4904 2.05361C12.5661 3.37379 12.6395 4.59618 12.6884 5.62298Z" fill="#00B085"></path>
<path d="M18.684 4.8651V18.4336H14.6257V4.8651H18.684Z" fill="#00B085"></path>
<path d="M33.9671 4.8651L29.0775 18.4336H25.1903L20.3252 4.8651H24.5303L27.1217 13.324H27.1706L29.7621 4.8651H33.9671Z" fill="#00B085"></path>
<path d="M49.113 4.8651V18.4336H45.0547V16.9667H45.0058C44.3213 18.2869 42.6344 18.8981 41.0453 18.8981C36.7425 18.8981 34.2244 15.5243 34.2244 11.6371C34.2244 7.18764 37.427 4.40059 41.0453 4.40059C43.27 4.40059 44.5169 5.47629 45.0058 6.30752H45.0547V4.8651H49.113ZM38.2827 11.686C38.2827 12.9573 39.2117 15.1087 41.6565 15.1087C44.199 15.1087 45.0547 12.9573 45.0547 11.6371C45.0547 9.99913 43.9301 8.18999 41.632 8.18999C39.3095 8.18999 38.2827 10.1458 38.2827 11.686Z" fill="#00B085"></path>
<path d="M65.96 0.342268V18.4336H62.0973V16.9667H62.0484C61.7061 17.529 60.7282 18.8737 57.99 18.8737C53.8828 18.8737 51.1936 15.6955 51.1936 11.6127C51.1936 7.0165 54.4696 4.40059 57.9167 4.40059C60.3126 4.40059 61.4616 5.57408 61.9017 6.01414V0.342268H65.96ZM55.2519 11.5882C55.2519 13.6907 56.7432 15.0843 58.6501 15.0843C61.1927 15.0843 62.1217 13.0062 62.1217 11.5882C62.1217 9.95023 60.9482 8.18999 58.699 8.18999C56.3521 8.18999 55.2519 10.0236 55.2519 11.5882Z" fill="#00B085"></path>
<path d="M68.0195 11.6371C68.0195 8.31223 70.391 4.42504 75.3294 4.42504C80.2679 4.42504 82.6393 8.31223 82.6393 11.6371C82.6393 14.962 80.2679 18.8492 75.3294 18.8492C70.391 18.8492 68.0195 14.962 68.0195 11.6371ZM72.0779 11.6371C72.0779 13.6174 73.5692 15.0598 75.3294 15.0598C77.0897 15.0598 78.581 13.6174 78.581 11.6371C78.581 9.65686 77.0897 8.21444 75.3294 8.21444C73.5692 8.21444 72.0779 9.65686 72.0779 11.6371Z" fill="#00B085"></path>
<path d="M84.6933 18.4336V4.8651H88.4827V6.30752H88.5316C88.9472 5.64743 89.8029 4.40059 92.2232 4.40059C93.5189 4.40059 94.9613 4.93844 95.6948 5.57409C96.4282 6.20973 97.2594 7.28543 97.2594 9.95023V18.4336H93.2011V11.0259C93.2011 10.0725 93.2011 8.21444 91.0742 8.21444C88.7516 8.21444 88.7516 10.2192 88.7516 11.0504V18.4336H84.6933Z" fill="#00B085"></path>
<path d="M105.689 18.4336V0.342268H110.31V14.3753H115.664V18.4336H105.689Z" fill="#00B085"></path>
<path d="M116.429 11.6371C116.429 8.31223 118.801 4.42504 123.739 4.42504C128.677 4.42504 131.049 8.31223 131.049 11.6371C131.049 14.962 128.677 18.8492 123.739 18.8492C118.801 18.8492 116.429 14.962 116.429 11.6371ZM120.487 11.6371C120.487 13.6174 121.979 15.0598 123.739 15.0598C125.499 15.0598 126.991 13.6174 126.991 11.6371C126.991 9.65686 125.499 8.21444 123.739 8.21444C121.979 8.21444 120.487 9.65686 120.487 11.6371Z" fill="#00B085"></path>
<path d="M147.16 4.8651V16.7956C147.16 18.8248 147.014 20.1205 146.354 21.2695C145.302 22.9809 142.833 24.4722 139.484 24.4722C134.765 24.4722 132.981 21.6363 132.712 19.7049H137.406C137.992 21.0495 139.508 21.0495 139.777 21.0495C140.29 21.0495 143.078 21.0006 143.078 17.3579V16.9423H143.029C142.613 17.7246 141.44 18.8737 139.313 18.8737C135.621 18.8737 132.467 16.0866 132.467 11.7349C132.467 7.08985 135.792 4.42504 139.313 4.42504C140.828 4.42504 142.32 4.96289 143.053 6.13638H143.102V4.8651H147.16ZM136.526 11.5882C136.526 13.7641 138.09 15.0843 139.777 15.0843C141.733 15.0843 143.102 13.6663 143.102 11.7105C143.102 9.53462 141.611 8.21444 139.802 8.21444C138.066 8.21444 136.526 9.60796 136.526 11.5882Z" fill="#00B085"></path>
<path d="M154.107 4.8651V18.4336H150.048V4.8651H154.107ZM154.107 0.342268V3.42268H150.048V0.342268H154.107Z" fill="#00B085"></path>
<path d="M166.554 8.67895H162.569C162.544 8.38558 162.495 7.65214 161.297 7.65214C160.442 7.65214 160.148 8.18999 160.148 8.55671C160.148 9.29014 161.151 9.70575 162.226 10.0236C164.525 10.6592 166.969 11.3438 166.969 14.2775C166.969 17.1379 164.451 18.8981 161.444 18.8981C159.39 18.8981 156.286 17.9691 155.919 14.3997H159.953C160.124 15.6466 161.322 15.6466 161.493 15.6466C162.178 15.6466 162.911 15.2554 162.911 14.5953C162.911 13.5441 161.909 13.4218 159.317 12.4195C157.557 11.8572 156.09 10.7081 156.09 8.87453C156.09 6.18528 158.535 4.40059 161.346 4.40059C163.131 4.40059 166.211 5.10958 166.554 8.67895Z" fill="#00B085"></path>
<path d="M173.62 0.342268V4.8651H175.575V7.94552H173.62V18.4336H169.561V7.94552H167.557V4.8651H169.561V0.342268H173.62Z" fill="#00B085"></path>
<path d="M181.139 4.8651V18.4336H177.081V4.8651H181.139ZM181.139 0.342268V3.42268H177.081V0.342268H181.139Z" fill="#00B085"></path>
<path d="M193.415 13.2751H197.547C196.814 16.3555 194.1 18.8737 190.433 18.8737C186.326 18.8737 183.172 15.6466 183.172 11.6127C183.172 7.6277 186.277 4.40059 190.335 4.40059C193.929 4.40059 196.838 6.77202 197.523 10.0969H193.415C192.975 9.1679 192.169 8.18999 190.482 8.18999C188.55 8.0922 187.255 9.68131 187.255 11.6371C187.255 13.6174 188.55 15.0843 190.482 15.0843C192.169 15.0843 192.975 14.1063 193.415 13.2751Z" fill="#00B085"></path>
<path d="M209.29 8.67895H205.305C205.281 8.38558 205.232 7.65214 204.034 7.65214C203.178 7.65214 202.885 8.18999 202.885 8.55671C202.885 9.29014 203.887 9.70575 204.963 10.0236C207.261 10.6592 209.706 11.3438 209.706 14.2775C209.706 17.1379 207.188 18.8981 204.181 18.8981C202.127 18.8981 199.022 17.9691 198.656 14.3997H202.69C202.861 15.6466 204.059 15.6466 204.23 15.6466C204.914 15.6466 205.648 15.2554 205.648 14.5953C205.648 13.5441 204.645 13.4218 202.054 12.4195C200.294 11.8572 198.827 10.7081 198.827 8.87453C198.827 6.18528 201.272 4.40059 204.083 4.40059C205.868 4.40059 208.948 5.10958 209.29 8.67895Z" fill="#00B085"></path>
<path d="M0.599976 33.8398V22.7998H3.07968V26.2162C3.96102 25.2763 5.14112 25.2763 5.48469 25.2763C7.2175 25.2763 9.56276 26.5146 9.56276 29.6476C9.56276 32.6314 7.48638 34.1233 5.38013 34.1233C4.21496 34.1233 3.31869 33.5563 3.00499 32.9596H2.97511V33.8398H0.599976ZM2.99005 29.6774C2.99005 30.8262 3.76683 31.8108 5.00668 31.8108C6.2764 31.8108 7.08305 30.7814 7.08305 29.6923C7.08305 28.6182 6.2764 27.5888 5.05149 27.5888C3.73695 27.5888 2.99005 28.648 2.99005 29.6774Z" fill="#F58800"></path>
<path d="M15.5503 25.5598H18.1794L14.0266 36.5998H11.3976L12.7121 33.4221L9.63488 25.5598H12.2789L13.937 30.3637H13.9669L15.5503 25.5598Z" fill="#F58800"></path>
<path d="M26.9674 26.6769L28.445 29.3201L26.0505 33.631L25.9251 33.8573H22.9795L23.341 33.2055L26.9674 26.6769ZM35.7801 33.8573H32.8334L32.708 33.631L30.5032 29.6605L29.423 27.7157L29.3798 27.6379L27.9022 24.9947L27.9075 24.9864L28.0255 24.7736L28.9867 23.0426L29.0994 22.7998H29.6633L29.7729 23.0416L30.7351 24.7736L35.4186 33.2055L35.7801 33.8573Z" fill="#F58800"></path>
<path d="M48.1393 22.8008V33.8988H45.7902V27.9399L44.5445 29.1811L44.065 29.6584L43.9354 29.7871L43.5054 30.2147L43.1945 30.5239L41.6136 28.9486L40.5292 27.8683L38.1801 25.5281V22.7998H38.7639L40.9982 25.0258L43.1945 27.2145L47.625 22.7998H48.1393V22.8008ZM38.1801 27.8361L40.5292 30.1721V33.8998H38.1801V27.8361Z" fill="#F58800"></path>
<path d="M53.4885 22.7998V33.8396H51.1394V22.7998H53.4885Z" fill="#F58800"></path>
<path d="M65.2895 31.5576V33.8977H56.4884V22.7998H58.8375V31.5576H65.2895Z" fill="#F58800"></path>
<path d="M78.7091 28.2906C78.7091 31.3178 76.2366 33.7815 73.1993 33.7815C70.1609 33.7815 67.6896 31.3189 67.6896 28.2906C67.6896 25.2624 70.1609 22.7998 73.1993 22.7998C76.2377 22.7998 78.7091 25.2624 78.7091 28.2906ZM73.1993 25.0912C71.4288 25.0912 69.9892 26.5264 69.9892 28.2896C69.9892 30.0528 71.4288 31.488 73.1993 31.488C74.9699 31.488 76.4095 30.0528 76.4095 28.2896C76.4095 26.5264 74.9699 25.0912 73.1993 25.0912Z" fill="#F58800"></path>
</svg>